<?xml version="1.0" ?><svg id="solid" viewBox="0 0 512 512" xmlns="http://www.w3.org/2000/svg"><title/><path d="M403.078,359.765a8,8,0,0,1,0,11.313A207.21,207.21,0,0,1,264,431.736V456h80a16,16,0,0,1,16,16h0a16,16,0,0,1-16,16H168a16,16,0,0,1-16-16h0a16,16,0,0,1,16-16h80V431.736a207.21,207.21,0,0,1-139.078-60.658c-81.1-81.1-81.1-213.057,0-294.156a8,8,0,0,1,11.313,11.313c-74.86,74.861-74.86,196.669,0,271.53s196.668,74.86,271.53,0A8,8,0,0,1,403.078,359.765ZM80,224c0-97.047,78.953-176,176-176s176,78.953,176,176S353.047,400,256,400,80,321.047,80,224Zm46.825-88a8.02,8.02,0,0,0-6.81,3.788,159.729,159.729,0,0,0-9.1,151.622,7.987,7.987,0,0,0,7.243,4.59H168a24,24,0,0,0,24-24.465C191.745,258.371,180.616,248,167.45,248H152a24,24,0,0,1-24-24.465C128.255,210.371,139.384,200,152.55,200H192a31.992,31.992,0,0,0,31.992-32.735C223.6,149.774,208.856,136,191.361,136ZM413.414,252.72a4.008,4.008,0,0,0-3.943-4.72H296a24,24,0,0,0,0,48h15.45c13.166,0,24.3,10.371,24.546,23.535A24,24,0,0,1,312,344H248a40,40,0,0,0-36.772,24.262,7.99,7.99,0,0,0,5.425,10.841A159.708,159.708,0,0,0,256,384C334.422,384,399.844,327.286,413.414,252.72ZM323.822,80H280.41A16.268,16.268,0,0,0,264,95.871,15.978,15.978,0,0,0,280,112h47.59A16.268,16.268,0,0,1,344,127.871,15.978,15.978,0,0,1,328,144h-8a24,24,0,0,0,0,48h89.06a3.009,3.009,0,0,0,2.926-3.688A160.624,160.624,0,0,0,327.391,80.833,7.975,7.975,0,0,0,323.822,80Z" style="fill:#3b3b3b"/></svg>